<?xml version="1.0" standalone="no"?>
<!DOCTYPE svg PUBLIC "-//W3C//DTD SVG 20010904//EN"
 "http://www.w3.org/TR/2001/REC-SVG-20010904/DTD/svg10.dtd">
<svg version="1.0" xmlns="http://www.w3.org/2000/svg"
 width="340.000000pt" height="280.000000pt" viewBox="0 0 340.000000 280.000000"
 preserveAspectRatio="xMidYMid meet">

<g transform="translate(0.000000,280.000000) scale(0.100000,-0.100000)"
fill="#000000" stroke="none">
<path d="M2590 2550 c-185 -86 -255 -123 -255 -135 0 -12 71 -49 259 -136 143
-65 265 -119 271 -119 15 0 296 128 310 141 5 6 5 13 -3 21 -8 8 -46 -5 -158
-56 l-147 -68 -41 18 c-146 65 -412 190 -416 197 -4 6 239 123 412 198 l46 21
224 -103 c122 -56 227 -106 232 -110 5 -5 -3 -13 -17 -20 -30 -14 -36 -39 -9
-39 34 1 104 39 100 56 -3 17 -507 255 -536 253 -10 0 -132 -54 -272 -119z"/>
<path d="M2852 2433 c2 -13 44 -25 188 -57 l185 -41 3 -139 c2 -119 0 -141
-14 -157 -12 -13 -17 -34 -16 -67 1 -26 -3 -105 -9 -176 -11 -121 -11 -130 7
-143 25 -18 78 -16 102 5 19 16 19 21 6 142 -7 69 -11 140 -8 158 6 33 -11 92
-27 92 -5 0 -9 72 -9 160 0 88 -2 160 -5 160 -3 0 -86 18 -185 40 -204 45
-223 47 -218 23z m408 -454 c0 -20 -4 -29 -12 -27 -15 5 -22 33 -14 54 9 24
26 6 26 -27z m6 -146 c13 -146 13 -148 -21 -148 -16 0 -30 5 -30 10 4 108 19
215 30 215 9 0 16 -24 21 -77z"/>
<path d="M2557 2243 c-4 -3 -7 -42 -7 -85 l0 -78 -1097 -2 c-1080 -3 -1098 -3
-1125 -23 -60 -44 -58 -9 -58 -879 l0 -796 -123 0 c-82 0 -127 -4 -135 -12 -7
-7 -12 -40 -12 -78 0 -79 22 -125 71 -152 32 -17 103 -18 1629 -18 1526 0
1597 1 1629 18 49 27 71 73 71 152 0 38 -5 71 -12 78 -8 8 -53 12 -135 12
l-123 0 0 783 0 784 25 23 c25 24 26 27 23 150 -3 103 -6 125 -18 125 -12 0
-16 -21 -18 -120 -3 -125 -10 -151 -31 -113 -7 13 -24 32 -39 43 -25 18 -45
20 -254 23 l-228 3 0 85 c0 63 -3 84 -13 84 -8 0 -17 -3 -20 -7z m-7 -237 c0
-8 19 -31 42 -50 l42 -36 -1080 0 c-593 0 -1085 -4 -1092 -8 -10 -7 -12 -148
-10 -673 l3 -664 1245 0 1245 0 5 644 5 643 50 19 c28 10 53 19 58 19 4 0 7
-342 7 -760 l0 -760 -59 0 -60 0 -3 53 -3 52 -245 0 -245 0 -3 -53 -3 -52
-749 0 -749 0 -3 53 -3 52 -245 0 -245 0 -3 -52 -3 -53 -60 0 -59 0 0 783 c0
836 -1 818 50 844 20 10 257 13 1098 13 920 0 1072 -2 1072 -14z m489 -10 c61
-55 -3 -82 -184 -77 -106 2 -137 7 -170 23 -54 28 -95 57 -95 69 0 7 78 9 214
7 194 -3 216 -5 235 -22z m-149 -756 l0 -610 -1190 0 -1190 0 0 610 0 610
1190 0 1190 0 0 -610z m-2000 -835 l0 -25 -190 0 -190 0 0 25 0 25 190 0 190
0 0 -25z m2000 0 l0 -25 -190 0 -190 0 0 25 0 25 190 0 190 0 0 -25z m450
-119 c0 -47 -20 -84 -52 -95 -43 -15 -3133 -15 -3176 0 -32 11 -52 48 -52 95
l0 24 1640 0 1640 0 0 -24z"/>
<path d="M1610 1666 c-224 -48 -379 -271 -342 -492 40 -239 268 -406 498 -367
189 33 335 179 366 367 38 227 -125 452 -356 495 -72 13 -95 13 -166 -3z m242
-88 c75 -35 138 -94 179 -170 33 -60 34 -68 34 -168 0 -95 -3 -111 -28 -162
-37 -75 -128 -160 -202 -187 -76 -29 -194 -29 -270 0 -74 27 -165 112 -202
187 -25 51 -28 67 -28 162 0 96 3 110 28 158 52 98 129 165 230 198 67 22 190
13 259 -18z"/>
<path d="M1572 1444 c-21 -15 -22 -20 -22 -204 0 -158 3 -191 16 -204 8 -9 23
-16 31 -16 9 0 87 41 175 91 171 99 191 120 151 160 -19 20 -282 174 -312 184
-9 3 -27 -2 -39 -11z m145 -120 c166 -95 163 -75 27 -155 -66 -38 -122 -69
-126 -69 -5 0 -8 63 -8 140 0 77 2 140 4 140 3 0 49 -25 103 -56z"/>
</g>
</svg>
